<svg xmlns="http://www.w3.org/2000/svg" version="1.0" width="500.000000" height="500.000000" preserveAspectRatio="xMidYMid meet" style=""><rect id="backgroundrect" width="100%" height="100%" x="0" y="0" fill="none" stroke="none"/>


<g class="currentLayer" style=""><title>Layer 1</title>


<g class="" stroke="none" filter="" opacity="1" stroke-width="24" fill="#ffffff" fill-opacity="1"><path d="M216.90000323206186,21.49999286979437 c-1.4000000208616257,0.7000000104308128 -3.0000000447034836,2.400000035762787 -3.6000000536441803,3.7000000551342964 c-0.5000000074505806,1.3000000193715096 -3.200000047683716,15.900000236928463 -5.900000087916851,32.50000048428774 l-4.90000007301569,30.200000450015068 l-8.00000011920929,2.7000000402331352 c-4.400000065565109,1.5000000223517418 -11.800000175833702,4.400000065565109 -16.400000244379044,6.500000096857548 c-4.6000000685453415,2.2000000327825546 -8.700000129640102,3.9000000581145287 -9.100000135600567,3.9000000581145287 c-0.30000000447034836,0 -12.000000178813934,-8.100000120699406 -25.900000385940075,-18.0000002682209 c-22.90000034123659,-16.300000242888927 -25.700000382959843,-18.0000002682209 -29.40000043809414,-18.0000002682209 c-4.000000059604645,0 -4.6000000685453415,0.5000000074505806 -25.300000376999378,21.200000315904617 c-11.700000174343586,11.60000017285347 -21.800000324845314,22.500000335276127 -22.500000335276127,24.100000359117985 c-0.9000000134110451,2.1000000312924385 -1.0000000149011612,3.7000000551342964 -0.20000000298023224,5.700000084936619 c0.6000000089406967,1.5000000223517418 8.700000129640102,13.800000205636024 18.200000271201134,27.3000004068017 c9.400000140070915,13.500000201165676 17.100000254809856,25.100000374019146 17.100000254809856,25.700000382959843 c0,0.6000000089406967 -1.4000000208616257,3.9000000581145287 -3.200000047683716,7.300000108778477 c-1.700000025331974,3.400000050663948 -4.700000070035458,10.700000159442425 -6.70000009983778,16.20000024139881 l-3.6000000536441803,10.000000149011612 l-30.500000454485416,5.100000075995922 c-16.800000250339508,2.8000000417232513 -31.300000466406345,5.4000000804662704 -32.30000048130751,5.900000087916851 c-4.300000064074993,1.8000000268220901 -4.700000070035458,4.800000071525574 -4.700000070035458,36.0000005364418 c0,32.40000048279762 0.30000000447034836,34.20000050961971 5.700000084936619,36.30000054091215 c1.5000000223517418,0.7000000104308128 15.600000232458115,3.400000050663948 31.300000466406345,6.200000092387199 c15.70000023394823,2.8000000417232513 29.000000432133675,5.200000077486038 29.60000044107437,5.4000000804662704 c0.7000000104308128,0.30000000447034836 2.2000000327825546,3.500000052154064 3.400000050663948,7.300000108778477 c1.3000000193715096,3.7000000551342964 4.200000062584877,11.000000163912773 6.600000098347664,16.20000024139881 c2.400000035762787,5.200000077486038 4.400000065565109,9.700000144541264 4.400000065565109,10.100000150501728 c0,0.30000000447034836 -8.100000120699406,12.000000178813934 -18.0000002682209,25.900000385940075 c-16.300000242888927,22.90000034123659 -18.0000002682209,25.700000382959843 -18.0000002682209,29.40000043809414 c0,4.000000059604645 0.5000000074505806,4.6000000685453415 21.200000315904617,25.400000378489494 c22.100000329315662,22.20000033080578 25.00000037252903,24.300000362098217 30.300000451505184,22.300000332295895 c1.5000000223517418,-0.6000000089406967 13.800000205636024,-8.800000131130219 27.400000408291817,-18.30000027269125 l24.600000366568565,-17.200000256299973 l10.500000156462193,4.700000070035458 c5.800000086426735,2.600000038743019 13.100000195205212,5.500000081956387 16.300000242888927,6.400000095367432 c3.200000047683716,1.0000000149011612 6.200000092387199,2.3000000342726707 6.600000098347664,2.9000000432133675 c0.4000000059604645,0.5000000074505806 2.9000000432133675,14.000000208616257 5.500000081956387,30.000000447034836 c2.600000038743019,15.900000236928463 5.200000077486038,30.300000451505184 5.800000086426735,31.800000473856926 c2.1000000312924385,5.4000000804662704 3.9000000581145287,5.700000084936619 36.30000054091215,5.700000084936619 c31.900000475347042,0 33.900000505149364,-0.30000000447034836 36.200000539422035,-5.200000077486038 c0.6000000089406967,-1.3000000193715096 3.500000052154064,-16.00000023841858 6.400000095367432,-32.50000048428774 l5.4000000804662704,-30.200000450015068 l8.600000128149986,-3.1000000461935997 c4.800000071525574,-1.700000025331974 12.400000184774399,-4.90000007301569 16.800000250339508,-7.000000104308128 l8.200000122189522,-4.000000059604645 l24.800000369548798,17.50000026077032 c13.600000202655792,9.600000143051147 26.00000038743019,17.900000266730785 27.60000041127205,18.500000275671482 c5.300000078976154,2.0000000298023224 8.100000120699406,-0.10000000149011612 30.300000451505184,-22.300000332295895 c20.60000030696392,-20.700000308454037 21.200000315904617,-21.40000031888485 21.200000315904617,-25.300000376999378 c0,-4.500000067055225 0.7000000104308128,-3.400000050663948 -20.60000030696392,-32.9000004902482 c-7.200000107288361,-9.900000147521496 -13.800000205636024,-19.200000286102295 -14.800000220537186,-20.700000308454037 c-1.700000025331974,-2.600000038743019 -1.600000023841858,-2.8000000417232513 2.0000000298023224,-9.900000147521496 c2.0000000298023224,-4.100000061094761 5.100000075995922,-11.400000169873238 6.900000102818012,-16.400000244379044 l3.300000049173832,-9.00000013411045 l29.800000444054604,-5.200000077486038 c16.50000024586916,-2.9000000432133675 31.20000046491623,-5.800000086426735 32.70000048726797,-6.400000095367432 c5.4000000804662704,-2.3000000342726707 5.700000084936619,-4.000000059604645 5.700000084936619,-36.80000054836273 l0,-30.100000448524952 l-2.8000000417232513,-3.1000000461935997 c-2.9000000432133675,-3.200000047683716 -2.9000000432133675,-3.200000047683716 -34.1000005081296,-8.400000125169754 l-31.300000466406345,-5.100000075995922 l-3.7000000551342964,-9.900000147521496 c-2.1000000312924385,-5.500000081956387 -5.200000077486038,-13.000000193715096 -7.1000001057982445,-16.600000247359276 l-3.200000047683716,-6.500000096857548 l17.50000026077032,-25.100000374019146 c9.700000144541264,-13.700000204145908 18.100000269711018,-26.200000390410423 18.700000278651714,-27.80000041425228 c2.0000000298023224,-5.300000078976154 -0.10000000149011612,-8.200000122189522 -22.40000033378601,-30.300000451505184 c-20.60000030696392,-20.60000030696392 -21.40000031888485,-21.200000315904617 -25.300000376999378,-21.200000315904617 c-3.6000000536441803,0 -6.600000098347664,1.8000000268220901 -29.700000442564487,18.400000274181366 l-25.700000382959843,18.500000275671482 l-8.100000120699406,-3.9000000581145287 c-4.400000065565109,-2.2000000327825546 -11.900000177323818,-5.300000078976154 -16.700000248849392,-7.000000104308128 l-8.800000131130219,-3.200000047683716 l-5.200000077486038,-30.100000448524952 c-2.9000000432133675,-16.50000024586916 -5.800000086426735,-31.20000046491623 -6.400000095367432,-32.50000048428774 c-2.3000000342726707,-4.90000007301569 -4.300000064074993,-5.200000077486038 -36.40000054240227,-5.200000077486038 c-23.500000350177288,0.10000000149011612 -30.300000451505184,0.4000000059604645 -32.40000048279762,1.5000000223517418 zm57.00000084936619,48.20000071823597 c4.400000065565109,25.50000037997961 5.500000081956387,30.100000448524952 7.400000110268593,32.00000047683716 c1.2000000178813934,1.1000000163912773 7.800000116229057,4.000000059604645 14.70000021904707,6.200000092387199 c6.800000101327896,2.3000000342726707 17.100000254809856,6.600000098347664 22.90000034123659,9.600000143051147 c6.3000000938773155,3.300000049173832 11.700000174343586,5.500000081956387 13.600000202655792,5.500000081956387 c2.600000038743019,0 8.200000122189522,-3.6000000536441803 27.60000041127205,-17.50000026077032 l24.400000363588333,-17.50000026077032 l13.200000196695328,13.200000196695328 c7.300000108778477,7.300000108778477 13.300000198185444,13.500000201165676 13.300000198185444,13.800000205636024 c0,0.4000000059604645 -7.600000113248825,11.60000017285347 -17.00000025331974,24.900000371038914 c-19.60000029206276,28.000000417232513 -19.30000028759241,27.200000405311584 -13.100000195205212,38.500000573694706 c4.800000071525574,8.600000128149986 10.100000150501728,21.800000324845314 12.600000187754631,30.800000458955765 c3.0000000447034836,11.200000166893005 2.3000000342726707,10.900000162422657 36.500000543892384,16.50000024586916 l29.500000439584255,4.800000071525574 l0.30000000447034836,19.30000028759241 c0.20000000298023224,12.700000189244747 -0.10000000149011612,19.200000286102295 -0.800000011920929,19.200000286102295 c-3.8000000566244125,0 -58.70000087469816,10.400000154972076 -60.00000089406967,11.300000168383121 c-2.8000000417232513,2.2000000327825546 -3.8000000566244125,4.200000062584877 -5.600000083446503,10.700000159442425 c-2.400000035762787,8.800000131130219 -7.700000114738941,22.000000327825546 -12.500000186264515,30.70000045746565 c-6.200000092387199,11.400000169873238 -6.500000096857548,10.500000156462193 13.100000195205212,37.70000056177378 c9.400000140070915,13.100000195205212 17.100000254809856,24.100000359117985 17.30000025779009,24.50000036507845 c0.30000000447034836,1.2000000178813934 -24.2000003606081,27.10000040382147 -25.700000382959843,27.10000040382147 c-0.7000000104308128,0 -12.200000181794167,-7.600000113248825 -25.50000037997961,-17.00000025331974 c-19.30000028759241,-13.500000201165676 -25.00000037252903,-17.00000025331974 -27.500000409781933,-17.00000025331974 c-2.0000000298023224,0 -7.300000108778477,2.1000000312924385 -13.700000204145908,5.500000081956387 c-5.800000086426735,3.0000000447034836 -16.100000239908695,7.300000108778477 -22.90000034123659,9.500000141561031 c-8.100000120699406,2.7000000402331352 -13.200000196695328,5.000000074505806 -14.600000217556953,6.500000096857548 c-2.3000000342726707,2.400000035762787 -2.2000000327825546,2.3000000342726707 -9.00000013411045,40.20000059902668 l-3.7000000551342964,21.300000317394733 l-19.10000028461218,0 l-19.200000286102295,0 l-4.90000007301569,-29.700000442564487 c-4.100000061094761,-25.00000037252903 -5.200000077486038,-30.100000448524952 -7.000000104308128,-31.900000475347042 c-1.2000000178813934,-1.2000000178813934 -7.200000107288361,-3.7000000551342964 -13.600000202655792,-5.700000084936619 c-6.400000095367432,-2.0000000298023224 -16.900000251829624,-6.400000095367432 -23.400000348687172,-9.700000144541264 c-6.600000098347664,-3.300000049173832 -13.100000195205212,-6.000000089406967 -14.500000216066837,-6.000000089406967 c-1.8000000268220901,0 -10.500000156462193,5.500000081956387 -27.000000402331352,17.00000025331974 c-13.500000201165676,9.400000140070915 -25.00000037252903,16.900000251829624 -25.600000381469727,16.800000250339508 c-0.7000000104308128,-0.20000000298023224 -6.900000102818012,-6.200000092387199 -13.800000205636024,-13.40000019967556 l-12.600000187754631,-13.200000196695328 l15.70000023394823,-21.800000324845314 c8.600000128149986,-12.10000018030405 16.50000024586916,-23.400000348687172 17.600000262260437,-25.200000375509262 c2.400000035762787,-4.000000059604645 1.9000000283122063,-7.1000001057982445 -2.2000000327825546,-14.000000208616257 c-4.400000065565109,-7.500000111758709 -9.600000143051147,-19.80000029504299 -13.100000195205212,-31.20000046491623 c-2.2000000327825546,-7.000000104308128 -3.8000000566244125,-10.500000156462193 -5.4000000804662704,-11.500000171363354 c-1.2000000178813934,-0.800000011920929 -15.300000227987766,-3.8000000566244125 -31.40000046789646,-6.70000009983778 l-29.200000435113907,-5.200000077486038 l0,-19.10000028461218 l0,-19.000000283122063 l14.300000213086605,-2.3000000342726707 c37.000000551342964,-5.900000087916851 44.80000066757202,-7.500000111758709 46.90000069886446,-9.700000144541264 c1.1000000163912773,-1.2000000178813934 3.8000000566244125,-7.400000110268593 5.900000087916851,-13.90000020712614 c2.1000000312924385,-6.400000095367432 6.600000098347664,-17.200000256299973 10.000000149011612,-23.900000356137753 c4.700000070035458,-9.400000140070915 5.900000087916851,-12.800000190734863 5.500000081956387,-15.000000223517418 c-0.30000000447034836,-1.5000000223517418 -7.800000116229057,-13.100000195205212 -16.600000247359276,-25.700000382959843 c-8.800000131130219,-12.500000186264515 -16.300000242888927,-23.600000351667404 -16.600000247359276,-24.50000036507845 c-0.5000000074505806,-1.2000000178813934 2.7000000402331352,-5.100000075995922 12.200000181794167,-14.600000217556953 c7.1000001057982445,-7.1000001057982445 13.500000201165676,-12.700000189244747 14.100000210106373,-12.400000184774399 c0.7000000104308128,0.20000000298023224 10.200000151991844,6.800000101327896 21.000000312924385,14.600000217556953 c23.800000354647636,17.200000256299973 28.10000041872263,19.900000296533108 30.800000458955765,19.900000296533108 c1.1000000163912773,0 6.900000102818012,-2.500000037252903 12.90000019222498,-5.600000083446503 c5.900000087916851,-3.1000000461935997 16.700000248849392,-7.500000111758709 23.900000356137753,-9.900000147521496 c9.600000143051147,-3.1000000461935997 13.600000202655792,-4.90000007301569 14.900000222027302,-6.600000098347664 c1.2000000178813934,-1.700000025331974 3.200000047683716,-11.200000166893005 6.500000096857548,-31.600000470876694 l4.800000071525574,-29.300000436604023 l19.10000028461218,0 l19.000000283122063,0 l5.300000078976154,29.700000442564487 z" id="svg_2" stroke-width="24" fill="#ffffff" fill-opacity="1" stroke="none" stroke-opacity="1" class="" filter="" opacity="1"/><path d="M235.00000350177288,171.39999510347843 c-18.700000278651714,4.000000059604645 -34.00000050663948,13.000000193715096 -46.000000685453415,27.10000040382147 c-22.70000033825636,26.700000397861004 -25.200000375509262,65.70000097900629 -6.100000090897083,94.70000141113997 c24.50000036507845,37.10000055283308 73.90000110119581,47.800000712275505 110.30000164359808,23.900000356137753 c37.10000055283308,-24.50000036507845 47.800000712275505,-73.90000110119581 23.900000356137753,-110.30000164359808 c-11.400000169873238,-17.30000025779009 -27.500000409781933,-28.800000429153442 -48.10000071674585,-34.50000051409006 c-7.800000116229057,-2.1000000312924385 -26.00000038743019,-2.600000038743019 -34.00000050663948,-0.9000000134110451 zm29.40000043809414,20.60000030696392 c11.300000168383121,2.9000000432133675 19.000000283122063,7.300000108778477 27.60000041127205,16.00000023841858 c8.700000129640102,8.600000128149986 13.100000195205212,16.300000242888927 16.00000023841858,27.60000041127205 c3.6000000536441803,14.100000210106373 1.8000000268220901,29.40000043809414 -5.200000077486038,42.70000063627958 c-4.200000062584877,8.100000120699406 -16.400000244379044,20.300000302493572 -24.50000036507845,24.50000036507845 c-13.300000198185444,7.000000104308128 -28.60000042617321,8.800000131130219 -42.70000063627958,5.200000077486038 c-11.300000168383121,-2.9000000432133675 -19.000000283122063,-7.300000108778477 -27.60000041127205,-16.00000023841858 c-8.700000129640102,-8.600000128149986 -13.100000195205212,-16.300000242888927 -16.00000023841858,-27.60000041127205 c-3.6000000536441803,-14.100000210106373 -1.8000000268220901,-29.40000043809414 5.200000077486038,-42.70000063627958 c4.200000062584877,-8.100000120699406 16.400000244379044,-20.300000302493572 24.50000036507845,-24.50000036507845 c13.300000198185444,-7.000000104308128 28.60000042617321,-8.800000131130219 42.70000063627958,-5.200000077486038 z" id="svg_3" stroke-width="24" fill="#ffffff" fill-opacity="1" stroke="none" stroke-opacity="1" class="" filter="" opacity="1"/></g></g><defs><filter id="f038" xmlns:inkscape="http://www.inkscape.org/namespaces/inkscape" inkscape:label="Button" x="0" y="0" width="1" height="1" inkscape:menu="Bevels" inkscape:menu-tooltip="Soft bevel, slightly depressed middle" color-interpolation-filters="sRGB">
            <feGaussianBlur stdDeviation="2.3" in="SourceAlpha" result="result0"/>
            <feMorphology in="SourceAlpha" radius="6.6" result="result1"/>
            <feGaussianBlur stdDeviation="8.9" in="result1"/>
            <feColorMatrix id="feColorMatrix2861" values="1 0 0 0 0 0 1 0 0 0 0 0 1 0 0 0 0 0 0.3 0" result="result91"/>
            <feComposite in="result0" operator="out" result="result2" in2="result91"/>
            <feGaussianBlur stdDeviation="1.7" result="result4"/>
            <feDiffuseLighting surfaceScale="10">
                <feDistantLight azimuth="225" elevation="45"/>
            </feDiffuseLighting>
            <feBlend id="feBlend2863" in2="SourceGraphic" mode="multiply"/>
            <feComposite in2="SourceAlpha" operator="in" result="result3"/>
            <feSpecularLighting in="result4" surfaceScale="5" specularExponent="17.9">
                <feDistantLight azimuth="225" elevation="45"/>
            </feSpecularLighting>
            <feComposite in2="result3" operator="atop"/>
        </filter></defs></svg>