<svg width="24" height="21" viewBox="0 0 24 21" fill="none" xmlns="http://www.w3.org/2000/svg">
<path d="M20.8411 2.61012C20.3303 2.09912 19.7239 1.69376 19.0564 1.4172C18.389 1.14064 17.6736 0.998291 16.9511 0.998291C16.2286 0.998291 15.5132 1.14064 14.8457 1.4172C14.1783 1.69376 13.5719 2.09912 13.0611 2.61012L12.0011 3.67012L10.9411 2.61012C9.9094 1.57842 8.51013 0.998826 7.0511 0.998826C5.59206 0.998826 4.19279 1.57842 3.1611 2.61012C2.1294 3.64181 1.5498 5.04108 1.5498 6.50012C1.5498 7.95915 2.1294 9.35842 3.1611 10.3901L4.2211 11.4501L12.0011 19.2301L19.7811 11.4501L20.8411 10.3901C21.3521 9.87936 21.7574 9.27293 22.034 8.60547C22.3106 7.93801 22.4529 7.2226 22.4529 6.50012C22.4529 5.77763 22.3106 5.06222 22.034 4.39476C21.7574 3.7273 21.3521 3.12087 20.8411 2.61012V2.61012Z" stroke="#DEDBDB" stroke-width="2" stroke-linecap="round" stroke-linejoin="round"/>
</svg>
