<svg width="90" height="56" viewBox="0 0 90 56" fill="none" xmlns="http://www.w3.org/2000/svg">
<rect x="16" y="31" width="16" height="16" transform="rotate(90 16 31)" fill="#F05A00"/>
<path d="M36.6 44.72H36.84L39.6 34.52H43.08L39.72 47H34.68L32.4 38.36H32.16L29.88 47H24.84L21.48 34.52H24.96L27.72 44.72H27.96L30.36 35.72H34.2L36.6 44.72ZM47.5416 43.04C47.5416 44.56 48.4616 45.32 50.3016 45.32H53.6616V40.76H50.3016C48.4616 40.76 47.5416 41.52 47.5416 43.04ZM53.6616 39.08C53.6616 37.928 53.3576 37.08 52.7496 36.536C52.1576 35.992 51.3816 35.72 50.4216 35.72C49.7016 35.72 48.9976 35.832 48.3096 36.056C47.6216 36.264 47.0056 36.552 46.4616 36.92L45.6216 35.48C45.9736 35.24 46.3576 35.032 46.7736 34.856C47.2056 34.68 47.6456 34.536 48.0936 34.424C48.5416 34.296 48.9816 34.2 49.4136 34.136C49.8616 34.072 50.2776 34.04 50.6616 34.04C51.6856 34.04 52.5896 34.16 53.3736 34.4C54.1576 34.64 54.8216 34.984 55.3656 35.432C55.9096 35.88 56.3176 36.416 56.5896 37.04C56.8776 37.648 57.0216 38.328 57.0216 39.08V47H50.3016C48.1256 47 46.5176 46.672 45.4776 46.016C44.4536 45.36 43.9416 44.368 43.9416 43.04C43.9416 41.712 44.4536 40.72 45.4776 40.064C46.5176 39.408 48.1256 39.08 50.3016 39.08H53.6616ZM70.0903 46.52H66.9703C64.6823 46.52 62.9863 46.112 61.8823 45.296C60.7943 44.464 60.2503 43.232 60.2503 41.6V34.52H63.6103V41.6C63.6103 42.752 63.8983 43.584 64.4743 44.096C65.0503 44.592 65.8823 44.84 66.9703 44.84H70.0903V34.52H73.4503V46.76C73.4503 47.512 73.3063 48.192 73.0183 48.8C72.7303 49.424 72.2983 49.96 71.7223 50.408C71.1623 50.856 70.4503 51.2 69.5863 51.44C68.7383 51.68 67.7463 51.8 66.6103 51.8C66.2263 51.8 65.8103 51.768 65.3623 51.704C64.9303 51.656 64.4903 51.568 64.0423 51.44C63.5943 51.328 63.1543 51.176 62.7223 50.984C62.3063 50.808 61.9223 50.6 61.5703 50.36L62.5303 48.92C63.0743 49.288 63.6823 49.576 64.3543 49.784C65.0263 50.008 65.6983 50.12 66.3703 50.12C67.5703 50.12 68.4903 49.848 69.1303 49.304C69.7703 48.76 70.0903 47.912 70.0903 46.76V46.52Z" fill="#212526"/>
<path d="M79.7006 37.16C79.7006 37.528 79.8606 37.864 80.1806 38.168C80.5166 38.472 81.0766 38.736 81.8606 38.96L85.5806 40.04C86.7326 40.376 87.6206 40.832 88.2446 41.408C88.8686 41.984 89.1806 42.728 89.1806 43.64C89.1806 44.216 89.0606 44.744 88.8206 45.224C88.5806 45.688 88.1886 46.088 87.6446 46.424C87.1006 46.76 86.3966 47.016 85.5326 47.192C84.6686 47.384 83.6046 47.48 82.3406 47.48C81.6846 47.48 81.0366 47.432 80.3966 47.336C79.7726 47.24 79.1726 47.112 78.5966 46.952C78.0366 46.776 77.5246 46.584 77.0606 46.376C76.5966 46.152 76.1966 45.92 75.8606 45.68L76.8206 44.24C77.4926 44.656 78.2766 45.024 79.1726 45.344C80.0846 45.648 81.1406 45.8 82.3406 45.8C83.5406 45.8 84.3806 45.64 84.8606 45.32C85.3406 45 85.5806 44.6 85.5806 44.12C85.5806 43.752 85.4126 43.424 85.0766 43.136C84.7406 42.832 84.1486 42.56 83.3006 42.32L79.5806 41.24C78.5566 40.936 77.7166 40.504 77.0606 39.944C76.4206 39.368 76.1006 38.6 76.1006 37.64C76.1006 37.128 76.2126 36.656 76.4366 36.224C76.6766 35.776 77.0446 35.392 77.5406 35.072C78.0366 34.752 78.6686 34.504 79.4366 34.328C80.2046 34.136 81.1326 34.04 82.2206 34.04C83.5486 34.04 84.7486 34.224 85.8206 34.592C86.9086 34.944 87.7886 35.36 88.4606 35.84L87.5006 37.28C86.8446 36.864 86.1006 36.504 85.2686 36.2C84.4366 35.88 83.4206 35.72 82.2206 35.72C81.3726 35.72 80.7406 35.856 80.3246 36.128C79.9086 36.4 79.7006 36.744 79.7006 37.16Z" fill="#F05A00"/>
<path d="M1.68 7.2H9.84C11.072 7.2 12.136 7.312 13.032 7.536C13.944 7.744 14.696 8.048 15.288 8.448C15.88 8.832 16.32 9.296 16.608 9.84C16.896 10.384 17.04 10.984 17.04 11.64C17.04 12.488 16.8 13.224 16.32 13.848C15.84 14.472 15.12 14.936 14.16 15.24C15.36 15.48 16.296 15.952 16.968 16.656C17.656 17.344 18 18.232 18 19.32C18 20.76 17.4 21.904 16.2 22.752C15.016 23.584 13.136 24 10.56 24H1.68V7.2ZM5.16 16.32V22.2H10.56C11.76 22.2 12.68 21.96 13.32 21.48C13.96 21 14.28 20.28 14.28 19.32C14.28 18.296 13.96 17.544 13.32 17.064C12.68 16.568 11.76 16.32 10.56 16.32H5.16ZM9.84 14.52C12.16 14.52 13.32 13.56 13.32 11.64C13.32 10.792 13.024 10.144 12.432 9.696C11.856 9.232 10.992 9 9.84 9H5.16V14.52H9.84Z" fill="#F05A00"/>
<path d="M20.8753 11.52H24.2353V19.08C24.2353 20.232 24.5233 21.064 25.0993 21.576C25.6753 22.072 26.5073 22.32 27.5953 22.32H30.7153V11.52H34.0753V24H27.5953C25.3073 24 23.6113 23.592 22.5073 22.776C21.4193 21.944 20.8753 20.712 20.8753 19.08V11.52ZM40.9256 24H37.5656V11.76H40.9256V24ZM41.0456 8.52C41.0456 9 40.8776 9.424 40.5416 9.792C40.2216 10.144 39.7896 10.32 39.2456 10.32C38.7016 10.32 38.2616 10.144 37.9256 9.792C37.6056 9.424 37.4456 9 37.4456 8.52C37.4456 8.04 37.6056 7.624 37.9256 7.272C38.2616 6.904 38.7016 6.72 39.2456 6.72C39.7736 6.72 40.2056 6.904 40.5416 7.272C40.8776 7.624 41.0456 8.04 41.0456 8.52ZM47.7666 24H44.4066V7.2H47.7666V24ZM60.8531 22.32V13.2H57.8531C57.3091 13.2 56.8051 13.288 56.3411 13.464C55.8931 13.624 55.5011 13.888 55.1651 14.256C54.8451 14.624 54.5891 15.096 54.3971 15.672C54.2211 16.248 54.1331 16.944 54.1331 17.76C54.1331 18.576 54.2211 19.272 54.3971 19.848C54.5891 20.424 54.8451 20.896 55.1651 21.264C55.5011 21.632 55.8931 21.904 56.3411 22.08C56.8051 22.24 57.3091 22.32 57.8531 22.32H60.8531ZM57.8531 24C56.7491 24 55.7411 23.856 54.8291 23.568C53.9331 23.28 53.1651 22.864 52.5251 22.32C51.8851 21.776 51.3891 21.12 51.0371 20.352C50.7011 19.584 50.5331 18.72 50.5331 17.76C50.5331 16.8 50.7011 15.936 51.0371 15.168C51.3891 14.4 51.8851 13.744 52.5251 13.2C53.1651 12.656 53.9331 12.24 54.8291 11.952C55.7411 11.664 56.7491 11.52 57.8531 11.52H60.8531V7.2H64.2131V24H57.8531Z" fill="#212526"/>
</svg>
