<?xml version="1.0"?>
<svg width="32" height="32" xmlns="http://www.w3.org/2000/svg" xmlns:svg="http://www.w3.org/2000/svg" preserveAspectRatio="xMidYMid meet" version="1.0">
 <g class="layer">
  <title>Layer 1</title>
  <g fill="#fff" id="svg_1" stroke="#fff" transform="matrix(0.1 0 0 -0.1 0 0)">
   <path d="m479,1585c-14,-7 -30,-24 -36,-37c-5,-13 -32,-159 -59,-325l-49,-302l-80,-27c-44,-15 -118,-44 -164,-65c-46,-22 -87,-39 -91,-39c-3,0 -120,81 -259,180c-229,163 -257,180 -294,180c-40,0 -46,-5 -253,-212c-117,-116 -218,-225 -225,-241c-9,-21 -10,-37 -2,-57c6,-15 87,-138 182,-273c94,-135 171,-251 171,-257c0,-6 -14,-39 -32,-73c-17,-34 -47,-107 -67,-162l-36,-100l-305,-51c-168,-28 -313,-54 -323,-59c-43,-18 -47,-48 -47,-360c0,-324 3,-342 57,-363c15,-7 156,-34 313,-62c157,-28 290,-52 296,-54c7,-3 22,-35 34,-73c13,-37 42,-110 66,-162c24,-52 44,-97 44,-101c0,-3 -81,-120 -180,-259c-163,-229 -180,-257 -180,-294c0,-40 5,-46 212,-254c221,-222 250,-243 303,-223c15,6 138,88 274,183l246,172l105,-47c58,-26 131,-55 163,-64c32,-10 62,-23 66,-29c4,-5 29,-140 55,-300c26,-159 52,-303 58,-318c21,-54 39,-57 363,-57c319,0 339,3 362,52c6,13 35,160 64,325l54,302l86,31c48,17 124,49 168,70l82,40l248,-175c136,-96 260,-179 276,-185c53,-20 81,1 303,223c206,207 212,214 212,253c0,45 7,34 -206,329c-72,99 -138,192 -148,207c-17,26 -16,28 20,99c20,41 51,114 69,164l33,90l298,52c165,29 312,58 327,64c54,23 57,40 57,368l0,301l-28,31c-29,32 -29,32 -341,84l-313,51l-37,99c-21,55 -52,130 -71,166l-32,65l175,251c97,137 181,262 187,278c20,53 -1,82 -224,303c-206,206 -214,212 -253,212c-36,0 -66,-18 -297,-184l-257,-185l-81,39c-44,22 -119,53 -167,70l-88,32l-52,301c-29,165 -58,312 -64,325c-23,49 -43,52 -364,52c-235,-1 -303,-4 -324,-15zm570,-482c44,-255 55,-301 74,-320c12,-11 78,-40 147,-62c68,-23 171,-66 229,-96c63,-33 117,-55 136,-55c26,0 82,36 276,175l244,175l132,-132c73,-73 133,-135 133,-138c0,-4 -76,-116 -170,-249c-196,-280 -193,-272 -131,-385c48,-86 101,-218 126,-308c30,-112 23,-109 365,-165l295,-48l3,-193c2,-127 -1,-192 -8,-192c-38,0 -587,-104 -600,-113c-28,-22 -38,-42 -56,-107c-24,-88 -77,-220 -125,-307c-62,-114 -65,-105 131,-377c94,-131 171,-241 173,-245c3,-12 -242,-271 -257,-271c-7,0 -122,76 -255,170c-193,135 -250,170 -275,170c-20,0 -73,-21 -137,-55c-58,-30 -161,-73 -229,-95c-81,-27 -132,-50 -146,-65c-23,-24 -22,-23 -90,-402l-37,-213l-191,0l-192,0l-49,297c-41,250 -52,301 -70,319c-12,12 -72,37 -136,57c-64,20 -169,64 -234,97c-66,33 -131,60 -145,60c-18,0 -105,-55 -270,-170c-135,-94 -250,-169 -256,-168c-7,2 -69,62 -138,134l-126,132l157,218c86,121 165,234 176,252c24,40 19,71 -22,140c-44,75 -96,198 -131,312c-22,70 -38,105 -54,115c-12,8 -153,38 -314,67l-292,52l0,191l0,190l143,23c370,59 448,75 469,97c11,12 38,74 59,139c21,64 66,172 100,239c47,94 59,128 55,150c-3,15 -78,131 -166,257c-88,125 -163,236 -166,245c-5,12 27,51 122,146c71,71 135,127 141,124c7,-2 102,-68 210,-146c238,-172 281,-199 308,-199c11,0 69,25 129,56c59,31 167,75 239,99c96,31 136,49 149,66c12,17 32,112 65,316l48,293l191,0l190,0l53,-297z" fill="#ffffff" id="svg_2"/>
   <path d="m660,86c-187,-40 -340,-130 -460,-271c-227,-267 -252,-657 -61,-947c245,-371 739,-478 1103,-239c371,245 478,739 239,1103c-114,173 -275,288 -481,345c-78,21 -260,26 -340,9zm294,-206c113,-29 190,-73 276,-160c87,-86 131,-163 160,-276c36,-141 18,-294 -52,-427c-42,-81 -164,-203 -245,-245c-133,-70 -286,-88 -427,-52c-113,29 -190,73 -276,160c-87,86 -131,163 -160,276c-36,141 -18,294 52,427c42,81 164,203 245,245c133,70 286,88 427,52z" fill="#ffffff" id="svg_3"/>
  </g>
 </g>
</svg>